<svg version="1.1" xmlns="http://www.w3.org/2000/svg" width="349" height="383">

<path d="M0 0 C3.62966042 3.49427344 6.75386652 7.10282285 9.8125 11.125 C10.24481934 11.6919458 10.67713867 12.2588916 11.12255859 12.84301758 C14.51935559 17.31561281 17.80914364 21.86253254 21.09375 26.41796875 C22.8783048 28.83516286 24.72682376 31.17151686 26.625 33.5 C31.18582472 39.12920689 35.43325697 44.98002156 39.71411133 50.82250977 C43.96005096 56.60994351 48.28602334 62.32344527 52.68359375 67.99609375 C55.8317424 72.07860018 58.9135946 76.20866581 61.9921875 80.34375 C63.37143466 82.16843496 64.79649704 83.9591037 66.2578125 85.71875 C68 88 68 88 68 90 C74.6 90 81.2 90 88 90 C88 76.47 88 62.94 88 49 C92.0126573 53.0126573 93.97518134 56.93553889 96.13330078 62.1418457 C97.03202201 64.06865338 98.07764252 65.76514128 99.2421875 67.54296875 C102.40219449 72.53091294 105.06113683 77.7474796 107.75 83 C111.75940601 90.7712564 115.8509712 98.47117053 120.23339844 106.0390625 C122.10627141 109.29561189 123.60768857 112.51922144 125 116 C126.22145302 118.20356728 127.47453027 120.38975215 128.75 122.5625 C131.81382672 127.84260947 134.64533122 133.18213206 137.3359375 138.6640625 C139.73007472 143.46357701 142.24729776 148.19585189 144.75634766 152.93603516 C147.38035214 157.90196607 149.97570747 162.88147849 152.546875 167.875 C153.16601051 169.07609313 153.78515115 170.27718362 154.40429688 171.47827148 C155.6070209 173.81196521 156.80554905 176.14766319 158.00195312 178.48461914 C161.04465014 184.38792295 164.19691484 190.15435416 167.71118164 195.79125977 C169.05522231 198.09463843 170.13615107 200.42570359 171.1875 202.875 C173.5802188 208.33194256 176.41552821 213.48761898 179.3125 218.6875 C182.95616347 225.23569932 186.47736652 231.8090222 189.7824707 238.53393555 C195.00045584 249.11724653 200.53599158 259.54232821 206 270 C203 270 203 270 201.5625 268.78515625 C201.046875 268.21667969 200.53125 267.64820313 200 267.0625 C197.19929688 264.13396396 194.30409783 261.57485695 191.125 259.0625 C184.41955015 253.67039343 178.25895434 247.73083465 172.0234375 241.80859375 C167.42925049 237.44592987 162.73480021 233.20962306 158 229 C156.33241669 227.50101911 154.66577024 226.00099544 153 224.5 C152.17757812 223.76007813 151.35515625 223.02015625 150.5078125 222.2578125 C148.81407106 220.73291756 147.12138831 219.20684598 145.4296875 217.6796875 C141.70607717 214.32046718 137.97886481 210.97017016 134.1875 207.6875 C129.97011937 204.01760894 125.88386015 200.21014304 121.78466797 196.40966797 C118.2253625 193.11531807 114.62482229 189.8806357 110.95703125 186.70703125 C108.6144085 184.66366569 106.30726578 182.58319141 104 180.5 C100.86544464 177.67455334 97.72650936 174.85495597 94.5625 172.0625 C93.94503906 171.51722656 93.32757813 170.97195312 92.69140625 170.41015625 C90.84382494 168.81877961 90.84382494 168.81877961 88 167 C88 183.5 88 200 88 217 C87.34 217 86.68 217 86 217 C84.59825815 215.15417184 83.28037491 213.24449428 82 211.3125 C78.48032561 206.08839666 74.80018417 201.04543331 70.93017578 196.0715332 C67.69844492 191.91496026 64.52502204 187.71879832 61.375 183.5 C56.55768984 177.05500612 51.69384342 170.64661506 46.8125 164.25 C41.17321522 156.85888978 35.56379155 149.44814163 30 142 C28.06351575 139.41590462 26.12549395 136.83296327 24.1875 134.25 C21.16532416 130.22202417 18.14385634 126.19354468 15.12890625 122.16015625 C9.50196361 114.63741844 3.8302043 107.15108766 -1.875 99.6875 C-7.74085624 92.01201694 -13.52421859 84.28167238 -19.22021484 76.47924805 C-23.05053037 71.24229631 -26.99193375 66.10212961 -31 61 C-30.67 60.34 -30.34 59.68 -30 59 C-29.55720703 59.41773682 -29.11441406 59.83547363 -28.65820312 60.26586914 C-26.60685083 62.19955151 -24.55343683 64.13103149 -22.5 66.0625 C-21.80390625 66.71927734 -21.1078125 67.37605469 -20.390625 68.05273438 C-16.29359971 71.90317944 -12.13428676 75.65976848 -7.88867188 79.34545898 C-5.0400083 81.84098549 -2.27012788 84.41802529 0.5 87 C4.60484461 90.80819395 8.74132355 94.56317016 12.9765625 98.2265625 C16.48220269 101.2990734 19.90798371 104.45988651 23.3515625 107.6015625 C25.50571307 109.55237143 27.67718469 111.47393612 29.875 113.375 C34.12481456 117.06169214 38.23651613 120.89534277 42.34521484 124.73779297 C45.46168534 127.63796049 48.63539272 130.38447041 52 133 C51.57206214 130.09002256 50.94512299 127.89117347 49.61328125 125.25 C47.96458702 121.92865957 46.71639915 118.62604628 45.5 115.125 C44.10802155 111.14671717 42.70679203 107.18143813 41.1875 103.25 C40 100 40 100 40 98 C39.34 98 38.68 98 38 98 C37.78609619 97.4323291 37.57219238 96.8646582 37.35180664 96.27978516 C31.62227528 81.12482562 25.6497773 66.0766542 19.5625 51.0625 C19.19699036 50.16048859 18.83148071 49.25847717 18.45489502 48.32913208 C14.81310828 39.34538076 11.15769522 30.36753021 7.4609375 21.40625 C6.93799111 20.13536761 6.41512018 18.86445416 5.89233398 17.59350586 C4.94872102 15.30327691 4.00058605 13.01490388 3.04711914 10.72875977 C2.43404907 9.24073853 2.43404907 9.24073853 1.80859375 7.72265625 C1.45595459 6.87453369 1.10331543 6.02641113 0.73999023 5.15258789 C0 3 0 3 0 0 Z " fill="#F70808" transform="translate(97,58)" data-index="1"></path>
<path d="M0 0 C4.01321014 4.01321014 5.97525617 7.93691197 8.13427734 13.14355469 C9.02840213 15.06090518 10.06711263 16.74706983 11.2265625 18.515625 C14.48125184 23.6522091 17.22469794 29.03129612 20 34.4375 C23.24703728 40.73790608 26.50841889 47.00906993 30.0378418 53.15698242 C32.93072155 58.69830423 32.48390555 65.90096398 32 72 C30.06219256 77.92741099 25.48874289 82.96966602 20.09375 86.109375 C17.27508468 87.37538569 15.10366649 88 12 88 C16.07939446 94.10472762 20.45724892 99.9125532 25.0625 105.625 C25.58263672 106.27049805 26.10277344 106.91599609 26.63867188 107.58105469 C27.14591797 108.21043945 27.65316406 108.83982422 28.17578125 109.48828125 C37 120.43895854 37 120.43895854 37 123 C35.35 123 33.7 123 32 123 C32 123.66 32 124.32 32 125 C28.9553906 125.18991128 25.92268634 125.32801567 22.875 125.4375 C21.59109375 125.52547852 21.59109375 125.52547852 20.28125 125.61523438 C14.00965744 125.78408494 14.00965744 125.78408494 11.04394531 123.48095703 C7 118.89615484 7 118.89615484 7 116 C6.34 116 5.68 116 5 116 C3.81640625 114.35546875 3.81640625 114.35546875 2.5625 112.1875 C0.93195764 109.38133148 -0.7085636 107.27924791 -3 105 C-3.72793974 103.83685073 -4.41664375 102.64815363 -5.0625 101.4375 C-6.76643423 98.05436646 -6.76643423 98.05436646 -9 96 C-9.33 104.91 -9.66 113.82 -10 123 C-16.27 123 -22.54 123 -29 123 C-29 95.94 -29 68.88 -29 41 C-19.43 41 -9.86 41 0 41 C0 27.47 0 13.94 0 0 Z " fill="#070202" transform="translate(185,107)" data-index="2"></path>
<path d="M0 0 C2.77820128 3.24123482 4.49588881 6.03081769 6 10 C7.22145302 12.20356728 8.47453027 14.38975215 9.75 16.5625 C12.81382672 21.84260947 15.64533122 27.18213206 18.3359375 32.6640625 C20.73007472 37.46357701 23.24729776 42.19585189 25.75634766 46.93603516 C28.38035214 51.90196607 30.97570747 56.88147849 33.546875 61.875 C34.16601051 63.07609313 34.78515115 64.27718362 35.40429688 65.47827148 C36.6070209 67.81196521 37.80554905 70.14766319 39.00195312 72.48461914 C42.04465014 78.38792295 45.19691484 84.15435416 48.71118164 89.79125977 C50.05522231 92.09463843 51.13615107 94.42570359 52.1875 96.875 C54.5802188 102.33194256 57.41552821 107.48761898 60.3125 112.6875 C63.95616347 119.23569932 67.47736652 125.8090222 70.7824707 132.53393555 C76.00045584 143.11724653 81.53599158 153.54232821 87 164 C84 164 84 164 82.5625 162.78515625 C82.046875 162.21667969 81.53125 161.64820313 81 161.0625 C78.19929688 158.13396396 75.30409783 155.57485695 72.125 153.0625 C65.41955015 147.67039343 59.25895434 141.73083465 53.0234375 135.80859375 C48.42925049 131.44592987 43.73480021 127.20962306 39 123 C37.33241669 121.50101911 35.66577024 120.00099544 34 118.5 C33.17757812 117.76007813 32.35515625 117.02015625 31.5078125 116.2578125 C29.81407106 114.73291756 28.12138831 113.20684598 26.4296875 111.6796875 C22.70607717 108.32046718 18.97886481 104.97017016 15.1875 101.6875 C11.55807461 98.52923734 8.02776317 95.27061415 4.5 92 C-0.9881801 86.91278283 -6.53883314 81.91718381 -12.26171875 77.09375 C-13.36966797 76.15015625 -13.36966797 76.15015625 -14.5 75.1875 C-15.1703125 74.62417969 -15.840625 74.06085938 -16.53125 73.48046875 C-18 72 -18 72 -18 70 C-10.74 70 -3.48 70 4 70 C5.63254443 64.24878506 5.63254443 64.24878506 3.04296875 60.80859375 C2.1081913 59.6706768 1.15515812 58.54759082 0.1875 57.4375 C-0.83032265 56.21037768 -1.84722833 54.98249429 -2.86328125 53.75390625 C-3.38486816 53.13402832 -3.90645508 52.51415039 -4.44384766 51.87548828 C-6.87998266 48.93943728 -9.18892907 45.90977923 -11.5 42.875 C-12.2940625 41.84117187 -13.088125 40.80734375 -13.90625 39.7421875 C-14.5971875 38.83726562 -15.288125 37.93234375 -16 37 C-16.88171875 35.89011719 -16.88171875 35.89011719 -17.78125 34.7578125 C-19 33 -19 33 -19 31 C-18.35933594 30.79246094 -17.71867188 30.58492187 -17.05859375 30.37109375 C-9.9460835 27.83772572 -4.43374508 24.60960988 -0.8203125 17.765625 C0.23331705 14.21338824 0.21618884 10.85258975 0.125 7.1875 C0.11597656 6.49462891 0.10695312 5.80175781 0.09765625 5.08789062 C0.07426157 3.39177605 0.03839641 1.69584129 0 0 Z " fill="#F90505" transform="translate(216,164)" data-index="3" style="opacity: 1;"></path>
<path d="M0 0 C7.59052037 6.48356949 15.083912 13.04886998 22.43188477 19.80688477 C27.25489948 24.24157057 32.12298377 28.62479894 37 33 C38.66692647 34.49971128 40.33359149 35.99971321 42 37.5 C42.82242188 38.23992187 43.64484375 38.97984375 44.4921875 39.7421875 C46.18592894 41.26708244 47.87861169 42.79315402 49.5703125 44.3203125 C53.29392283 47.67953282 57.02113519 51.02982984 60.8125 54.3125 C65.11211261 58.04938212 69.27465756 61.93266578 73.43286133 65.82543945 C75.67901323 67.91666089 77.8726535 69.91094068 80.390625 71.671875 C81.18726563 72.32929688 81.18726563 72.32929688 82 73 C82 73.99 82 74.98 82 76 C83.98 76.99 83.98 76.99 86 78 C86 88.89 86 99.78 86 111 C84.515 110.505 84.515 110.505 83 110 C83 109.34 83 108.68 83 108 C82.101604 107.86452759 82.101604 107.86452759 81.18505859 107.72631836 C78.42542344 106.80900947 77.70206084 105.73899165 76.0390625 103.37890625 C75.49217773 102.61731201 74.94529297 101.85571777 74.38183594 101.07104492 C73.51220215 99.82931519 73.51220215 99.82931519 72.625 98.5625 C71.37461254 96.81872086 70.12194812 95.07657252 68.8671875 93.3359375 C67.9076416 92.00127441 67.9076416 92.00127441 66.92871094 90.63964844 C63.96327689 86.58113287 60.86129804 82.63461167 57.75 78.6875 C53.28187934 72.99717724 48.97336583 67.23766064 44.81835938 61.31591797 C40.88119749 55.74569257 36.67268746 50.39907792 32.46191406 45.03442383 C27.51303253 38.70914298 22.73688429 32.26856476 17.99389648 25.78808594 C13.73995926 19.98225724 9.39979713 14.25318386 4.98828125 8.56640625 C4.33214844 7.71949219 3.67601563 6.87257813 3 6 C2.41605469 5.26652344 1.83210938 4.53304687 1.23046875 3.77734375 C0 2 0 2 0 0 Z " fill="#F70607" transform="translate(66,117)" data-index="4"></path>
<path d="M0 0 C0 26.73 0 53.46 0 81 C6.27 81 12.54 81 19 81 C19 71.76 19 62.52 19 53 C24.81064522 58.81064522 29.67665441 65.01613405 34 72 C34 72.66 34 73.32 34 74 C34.66 74 35.32 74 36 74 C36.27714844 74.56589844 36.55429688 75.13179688 36.83984375 75.71484375 C38.27724492 78.62545325 39.34886231 80.06184216 42 82 C48.1878557 83.3793144 54.69618007 83.09986249 61 83 C61 82.34 61 81.68 61 81 C62.98 81.495 62.98 81.495 65 82 C64.505 83.485 64.505 83.485 64 85 C42.5958191 87.57182019 42.5958191 87.57182019 37.31640625 84.09765625 C34.93497366 81.85776497 32.95593538 79.61114947 31 77 C30.01 76.505 30.01 76.505 29 76 C29 92.5 29 109 29 126 C28.34 126 27.68 126 27 126 C25.59825815 124.15417184 24.28037491 122.24449428 23 120.3125 C19.4876246 115.09923024 15.8158781 110.06624857 11.9543457 105.10229492 C8.48757701 100.64273026 5.07638401 96.14403523 1.6875 91.625 C1.19596436 90.97104248 0.70442871 90.31708496 0.19799805 89.64331055 C-2.92877382 85.47056094 -5.98330988 81.25303852 -9 77 C-8.01 76.505 -8.01 76.505 -7 76 C-7 76.66 -7 77.32 -7 78 C-6.34 78 -5.68 78 -5 78 C-4.92593483 73.4793661 -4.87143955 68.959084 -4.83520508 64.43798828 C-4.82010289 62.89951426 -4.79961954 61.36108339 -4.77368164 59.82275391 C-4.73735926 57.61349859 -4.72028881 55.40481152 -4.70703125 53.1953125 C-4.69154739 52.50567413 -4.67606354 51.81603577 -4.66011047 51.10549927 C-4.62462117 48.95571414 -4.62462117 48.95571414 -5 46 C-5.99 45.34 -6.98 44.68 -8 44 C-7.814375 43.2575 -7.62875 42.515 -7.4375 41.75 C-7.00796892 39.05009037 -7.14877026 37.55368923 -8 35 C-6.68 35.33 -5.36 35.66 -4 36 C-4.495 18.675 -4.495 18.675 -5 1 C-2 0 -2 0 0 0 Z " fill="#F80404" transform="translate(156,149)" data-index="5" style="opacity: 1;"></path>
<path d="M0 0 C4.01384853 4.01384853 5.9747386 7.93838698 8.13549805 13.14501953 C9.02465143 15.05289511 10.0546928 16.73175678 11.20703125 18.4921875 C14.54965908 23.76986063 17.42373129 29.27715582 20.3125 34.8125 C20.86228516 35.84826172 21.41207031 36.88402344 21.97851562 37.95117188 C22.49736328 38.94310547 23.01621094 39.93503906 23.55078125 40.95703125 C24.25714722 42.30244995 24.25714722 42.30244995 24.9777832 43.67504883 C26 46 26 46 26 49 C25.49210937 48.66226563 24.98421875 48.32453125 24.4609375 47.9765625 C15.88381578 42.41910161 10.90844786 41.90903732 0 41 C0 27.47 0 13.94 0 0 Z " fill="#F70706" transform="translate(185,107)" data-index="6"></path>
<path d="M0 0 C4.33125 -0.061875 4.33125 -0.061875 8.75 -0.125 C10.10496582 -0.15231201 10.10496582 -0.15231201 11.48730469 -0.18017578 C12.20821289 -0.1851709 12.92912109 -0.19016602 13.671875 -0.1953125 C14.4050293 -0.20578613 15.13818359 -0.21625977 15.89355469 -0.22705078 C19.28293463 0.13828572 21.39315585 1.36005526 23.71875 3.8125 C25.97932607 7.67202011 25.76953387 11.67766489 25 16 C22.00307465 19.51068398 19.44270981 20.33858534 15 21 C10.32925394 21.12845836 5.67367419 21.0436792 1 21 C0.67 14.07 0.34 7.14 0 0 Z " fill="#F90303" transform="translate(174,162)" data-index="7"></path>
<path d="M0 0 C0 26.73 0 53.46 0 81 C5.61 81 11.22 81 17 81 C16.67 81.99 16.34 82.98 16 84 C-1.21076233 86.18116592 -1.21076233 86.18116592 -5.59765625 83.28515625 C-7.06845301 81.22893178 -8.14284774 79.374052 -9 77 C-8.01 76.505 -8.01 76.505 -7 76 C-7 76.66 -7 77.32 -7 78 C-6.34 78 -5.68 78 -5 78 C-4.92593483 73.4793661 -4.87143955 68.959084 -4.83520508 64.43798828 C-4.82010289 62.89951426 -4.79961954 61.36108339 -4.77368164 59.82275391 C-4.73735926 57.61349859 -4.72028881 55.40481152 -4.70703125 53.1953125 C-4.69154739 52.50567413 -4.67606354 51.81603577 -4.66011047 51.10549927 C-4.62462117 48.95571414 -4.62462117 48.95571414 -5 46 C-5.99 45.34 -6.98 44.68 -8 44 C-7.814375 43.2575 -7.62875 42.515 -7.4375 41.75 C-7.00796892 39.05009037 -7.14877026 37.55368923 -8 35 C-6.68 35.33 -5.36 35.66 -4 36 C-4.495 18.675 -4.495 18.675 -5 1 C-2 0 -2 0 0 0 Z " fill="#C3201A" transform="translate(156,149)" data-index="8"></path>
<path d="M0 0 C8.63245305 3.65654125 14.27561735 15.10218997 19.5 22.5 C20.13599121 23.39702637 20.77198242 24.29405273 21.42724609 25.21826172 C22.01844238 26.06404785 22.60963867 26.90983398 23.21875 27.78125 C23.75435547 28.54501953 24.28996094 29.30878906 24.84179688 30.09570312 C26 32 26 32 26 34 C31.61 34 37.22 34 43 34 C43 34.66 43 35.32 43 36 C39.9553906 36.18991128 36.92268634 36.32801567 33.875 36.4375 C33.0190625 36.49615234 32.163125 36.55480469 31.28125 36.61523438 C25.00965744 36.78408494 25.00965744 36.78408494 22.04394531 34.48095703 C18 29.89615484 18 29.89615484 18 27 C17.34 27 16.68 27 16 27 C14.81640625 25.35546875 14.81640625 25.35546875 13.5625 23.1875 C11.93219771 20.38174464 10.29123024 18.27897768 8 16 C7.00717405 14.23853461 6.01562301 12.47616671 5.05078125 10.69921875 C3.97078951 8.78992738 3.97078951 8.78992738 1.75 6.875 C0 5 0 5 -0.25 2.25 C-0.1675 1.5075 -0.085 0.765 0 0 Z " fill="#5C574B" transform="translate(174,196)" data-index="9"></path>
<path d="M0 0 C0.33 0 0.66 0 1 0 C1 26.07 1 52.14 1 79 C5.95 79 10.9 79 16 79 C16 79.66 16 80.32 16 81 C10.39 81 4.78 81 -1 81 C-1.02255116 70.58656689 -1.04091517 60.17314987 -1.05181217 49.75969791 C-1.05704097 44.92483173 -1.06413854 40.08998306 -1.07543945 35.25512695 C-1.08626847 30.5932288 -1.09227686 25.93134754 -1.09487724 21.26943779 C-1.09673147 19.48675712 -1.10035203 17.70407741 -1.10573006 15.92140388 C-1.11294069 13.4333404 -1.11399093 10.94534757 -1.11352539 8.45727539 C-1.11712067 7.71281158 -1.12071594 6.96834778 -1.12442017 6.20132446 C-1.11405216 1.11405216 -1.11405216 1.11405216 0 0 Z " fill="#685C53" transform="translate(155,151)" data-index="10"></path>
<path d="M0 0 C7.17625565 6.12971837 14.28643962 12.31667314 21.25 18.6875 C21.75748779 19.15115967 22.26497559 19.61481934 22.7878418 20.0925293 C25.5914658 22.66641639 28.33112017 25.28663884 31 28 C29.35 27.67 27.7 27.34 26 27 C26 29.64 26 32.28 26 35 C21.37692639 30.70839204 17.80798513 25.8550488 14.125 20.75 C12.94134172 19.11889288 11.7564478 17.48868173 10.5703125 15.859375 C9.98926758 15.05951172 9.40822266 14.25964844 8.80957031 13.43554688 C6.38037217 10.16602709 3.84128708 6.98864414 1.28076172 3.82128906 C0 2 0 2 0 0 Z " fill="#F0100F" transform="translate(66,117)" data-index="11"></path>
<path d="M0 0 C2.91691525 -0.05401695 5.83282724 -0.09368066 8.75 -0.125 C9.575 -0.14175781 10.4 -0.15851563 11.25 -0.17578125 C12.04921875 -0.18222656 12.8484375 -0.18867188 13.671875 -0.1953125 C14.4050293 -0.20578613 15.13818359 -0.21625977 15.89355469 -0.22705078 C19.27826849 0.13778276 21.39263423 1.37216123 23.73828125 3.796875 C25.28042403 6.48965682 25.30904037 8.17097724 25.1875 11.25 C25.16042969 12.14203125 25.13335937 13.0340625 25.10546875 13.953125 C25.07066406 14.62859375 25.03585938 15.3040625 25 16 C24.01 16.33 23.02 16.66 22 17 C21.83564453 16.04287109 21.83564453 16.04287109 21.66796875 15.06640625 C21.43013672 13.82697266 21.43013672 13.82697266 21.1875 12.5625 C21.03667969 11.73878906 20.88585937 10.91507813 20.73046875 10.06640625 C20.48941406 9.38449219 20.24835938 8.70257813 20 8 C19.01 7.67 18.02 7.34 17 7 C17 6.34 17 5.68 17 5 C15.68 5 14.36 5 13 5 C13 6.98 13 8.96 13 11 C12.01 11.33 11.02 11.66 10 12 C6 6.25 6 6.25 6 4 C3.03 3.505 3.03 3.505 0 3 C0 2.01 0 1.02 0 0 Z " fill="#665D53" transform="translate(174,162)" data-index="12"></path>
<path d="M0 0 C0.99 0.33 1.98 0.66 3 1 C2.67 17.5 2.34 34 2 51 C1.34 51 0.68 51 0 51 C-1.65 48.03 -3.3 45.06 -5 42 C-4.34 42 -3.68 42 -3 42 C-3 42.66 -3 43.32 -3 44 C-2.34 44 -1.68 44 -1 44 C-0.67 29.48 -0.34 14.96 0 0 Z " fill="#E63938" transform="translate(183,224)" data-index="13"></path>
<path d="M0 0 C0.66 0.33 1.32 0.66 2 1 C1.67 27.4 1.34 53.8 1 81 C6.61 81 12.22 81 18 81 C18 80.34 18 79.68 18 79 C18.66 79.33 19.32 79.66 20 80 C19.67 80.66 19.34 81.32 19 82 C9.595 82.495 9.595 82.495 0 83 C-0.66 81.68 -1.32 80.36 -2 79 C-1.34 79 -0.68 79 0 79 C0 52.93 0 26.86 0 0 Z " fill="#A6433A" transform="translate(153,151)" data-index="14"></path>
<path d="M0 0 C2.23462962 2.06395631 3.6656993 3.96321052 5.0078125 6.6875 C5.52794922 7.73550781 5.52794922 7.73550781 6.05859375 8.8046875 C6.41050781 9.52914063 6.76242187 10.25359375 7.125 11 C7.48464844 11.72445313 7.84429687 12.44890625 8.21484375 13.1953125 C9.65529015 16.11936473 10.96707986 18.90123959 12 22 C7.70918446 20.30265036 4.73370512 17.18073229 1.4375 14.0625 C0.86064453 13.52431641 0.28378906 12.98613281 -0.31054688 12.43164062 C-2.91623541 9.99425493 -5.48579692 7.5319713 -8 5 C-5.69 5.66 -3.38 6.32 -1 7 C-0.67 4.69 -0.34 2.38 0 0 Z " fill="#F40303" transform="translate(291,307)" data-index="15" style="opacity: 1;"></path>
<path d="M0 0 C0.66 0 1.32 0 2 0 C2.27714844 0.56589844 2.55429688 1.13179687 2.83984375 1.71484375 C4.27724492 4.62545325 5.34886231 6.06184216 8 8 C14.1878557 9.3793144 20.69618007 9.09986249 27 9 C27 8.34 27 7.68 27 7 C28.32 7.33 29.64 7.66 31 8 C30.67 8.99 30.34 9.98 30 11 C8.60617284 13.57057613 8.60617284 13.57057613 3.24609375 10.0625 C0.85449371 7.83451743 -1.14935311 5.68946701 -3 3 C-2.34 2.67 -1.68 2.34 -1 2 C-0.34 2.33 0.32 2.66 1 3 C0.67 2.01 0.34 1.02 0 0 Z " fill="#C02D2A" transform="translate(190,223)" data-index="16"></path>
<path d="M0 0 C3 3 3 3 3.2487793 6.73706055 C3.20638942 8.28745909 3.14712561 9.83745534 3.07421875 11.38671875 C3.04777786 12.20372757 3.02133698 13.02073639 2.99409485 13.86250305 C2.90633415 16.47157907 2.79718662 19.07926267 2.6875 21.6875 C2.62424082 23.45633034 2.56237477 25.22521109 2.50195312 26.99414062 C2.35079406 31.33017754 2.18045018 35.66508727 2 40 C4.97 40 7.94 40 11 40 C11 40.33 11 40.66 11 41 C7.37 41 3.74 41 0 41 C0 27.47 0 13.94 0 0 Z " fill="#E22927" transform="translate(185,107)" data-index="17"></path>
<path d="M0 0 C2.475 0.495 2.475 0.495 5 1 C4.67 1.66 4.34 2.32 4 3 C3.01 2.67 2.02 2.34 1 2 C1 6.62 1 11.24 1 16 C6.61 16 12.22 16 18 16 C18 12.04 18 8.08 18 4 C21.90381822 7.90381822 21.56244183 9.66179036 22 15 C15.43111927 19.37925382 7.6152456 18.07117052 0 18 C0 12.06 0 6.12 0 0 Z " fill="#CB1515" transform="translate(175,165)" data-index="18"></path>
<path d="M0 0 C0.66 0 1.32 0 2 0 C2.33 0.99 2.66 1.98 3 3 C3.474375 3.45375 3.94875 3.9075 4.4375 4.375 C6.37092514 6.38576214 7.0831564 8.39052205 8 11 C8.99 10.67 9.98 10.34 11 10 C11.66 11.32 12.32 12.64 13 14 C18.61 14 24.22 14 30 14 C30 14.66 30 15.32 30 16 C26.9553906 16.18991128 23.92268634 16.32801567 20.875 16.4375 C20.0190625 16.49615234 19.163125 16.55480469 18.28125 16.61523438 C12.00965744 16.78408494 12.00965744 16.78408494 9.04394531 14.48095703 C5 9.89615484 5 9.89615484 5 7 C4.34 7 3.68 7 3 7 C2.01 4.69 1.02 2.38 0 0 Z " fill="#735F54" transform="translate(187,216)" data-index="19"></path>
<path d="M0 0 C4.8403477 4.53782597 9.14689594 9.59800548 13 15 C13 15.66 13 16.32 13 17 C11.68 17 10.36 17 9 17 C8.34 17.99 7.68 18.98 7 20 C5.82685974 17.23174812 4.66129785 14.46071514 3.5 11.6875 C2.99919922 10.50897461 2.99919922 10.50897461 2.48828125 9.30664062 C2.17246094 8.54931641 1.85664062 7.79199219 1.53125 7.01171875 C1.23798828 6.31522217 0.94472656 5.61872559 0.64257812 4.90112305 C0 3 0 3 0 0 Z " fill="#EB1E1E" transform="translate(97,58)" data-index="20"></path>
<path d="M0 0 C5.64615385 5.64615385 5.64615385 5.64615385 8.0625 8.9375 C8.56136719 9.61683594 9.06023437 10.29617187 9.57421875 10.99609375 C11.44563688 13.62633348 13.24077452 16.29349926 15 19 C14.67 19.66 14.34 20.32 14 21 C10.39774608 17.64617739 7.99824318 14.24604715 6 9.75 C5.05720054 7.64862526 5.05720054 7.64862526 2 7 C1.67 13.93 1.34 20.86 1 28 C0.67 28 0.34 28 0 28 C0 18.76 0 9.52 0 0 Z " fill="#D01314" transform="translate(175,202)" data-index="21"></path>
<path d="M0 0 C2.33682372 1.99603692 4.66939311 3.99672554 7 6 C7.72960937 6.62261719 8.45921875 7.24523437 9.2109375 7.88671875 C9.92507812 8.50160156 10.63921875 9.11648437 11.375 9.75 C12.04273437 10.32234375 12.71046875 10.8946875 13.3984375 11.484375 C15 13 15 13 16 15 C15.34 15 14.68 15 14 15 C13.01 16.485 13.01 16.485 12 18 C9.99224902 15.38084613 7.99515805 12.75375554 6 10.125 C5.42765625 9.37863281 4.8553125 8.63226563 4.265625 7.86328125 C3.72421875 7.14785156 3.1828125 6.43242188 2.625 5.6953125 C2.12226562 5.03547363 1.61953125 4.37563477 1.1015625 3.69580078 C0 2 0 2 0 0 Z " fill="#E31D1C" transform="translate(66,117)" data-index="22"></path>
<path d="M0 0 C1.77007714 -0.08114106 3.54122098 -0.13925505 5.3125 -0.1875 C6.29863281 -0.22230469 7.28476563 -0.25710937 8.30078125 -0.29296875 C11 0 11 0 12.85546875 1.51171875 C13.23316406 2.00285156 13.61085937 2.49398437 14 3 C13.01 3.495 13.01 3.495 12 4 C12 3.34 12 2.68 12 2 C10.68 2 9.36 2 8 2 C8 3.98 8 5.96 8 8 C7.01 8.33 6.02 8.66 5 9 C3.35 6.03 1.7 3.06 0 0 Z " fill="#D52E2C" transform="translate(179,165)" data-index="23"></path>

<path d="M0 0 C3.46365398 1.15455133 4.19137152 1.90559139 6 5 C6.29296875 7.578125 6.29296875 7.578125 6.1875 10.25 C6.16042969 11.14203125 6.13335937 12.0340625 6.10546875 12.953125 C6.07066406 13.62859375 6.03585938 14.3040625 6 15 C5.01 15.33 4.02 15.66 3 16 C2.87882813 15.38511719 2.75765625 14.77023438 2.6328125 14.13671875 C2.46523437 13.32847656 2.29765625 12.52023438 2.125 11.6875 C1.96257812 10.88699219 1.80015625 10.08648437 1.6328125 9.26171875 C1.05521001 6.74698882 1.05521001 6.74698882 -1 4 C-0.34 3.67 0.32 3.34 1 3 C0.67 2.01 0.34 1.02 0 0 Z " fill="#635145" transform="translate(193,163)" data-index="25"></path>
<path d="M0 0 C5.1711115 4.54431011 8.44663108 10.15281368 12 16 C11.01 16.33 10.02 16.66 9 17 C6 12.25 6 12.25 6 10 C5.01 9.67 4.02 9.34 3 9 C3 8.01 3 7.02 3 6 C2.34 6 1.68 6 1 6 C0.67 4.02 0.34 2.04 0 0 Z " fill="#565D50" transform="translate(186,210)" data-index="26"></path>
<path d="M0 0 C0.33 0 0.66 0 1 0 C1 5.94 1 11.88 1 18 C6.94 17.67 12.88 17.34 19 17 C18.67 17.99 18.34 18.98 18 20 C12.06 19.67 6.12 19.34 0 19 C0 12.73 0 6.46 0 0 Z " fill="#530101" transform="translate(174,165)" data-index="27"></path>
<path d="M0 0 C0.99 0.33 1.98 0.66 3 1 C3.94921875 2.92578125 3.94921875 2.92578125 4.6875 5.3125 C4.93886719 6.09238281 5.19023438 6.87226562 5.44921875 7.67578125 C6 10 6 10 6 14 C6.66 14 7.32 14 8 14 C8 15.65 8 17.3 8 19 C8.66 19 9.32 19 10 19 C10 20.65 10 22.3 10 24 C6.59456789 20.16495953 5.09985262 15.59898418 3.3125 10.875 C2.99216797 10.05128906 2.67183594 9.22757813 2.34179688 8.37890625 C0 2.27725213 0 2.27725213 0 0 Z " fill="#EA2D2C" transform="translate(113,98)" data-index="28"></path>
<path d="M0 0 C5.75334215 2.03059135 8.39221586 4.08029436 12 9 C10.35 8.67 8.7 8.34 7 8 C6.67 6.68 6.34 5.36 6 4 C5.01 4.495 5.01 4.495 4 5 C3.34786708 7.02463255 3.34786708 7.02463255 3 9 C0.90250005 6.64031256 0.03094296 5.45383006 -0.1875 2.25 C-0.125625 1.5075 -0.06375 0.765 0 0 Z " fill="#EC1211" transform="translate(79,131)" data-index="29"></path>
<path d="M0 0 C5.94 0 11.88 0 18 0 C18 0.66 18 1.32 18 2 C16.51886719 2.07347656 16.51886719 2.07347656 15.0078125 2.1484375 C13.72648438 2.22320312 12.44515625 2.29796875 11.125 2.375 C9.21074219 2.47941406 9.21074219 2.47941406 7.2578125 2.5859375 C3.91938301 2.67241106 3.91938301 2.67241106 2 5 C1.34 3.35 0.68 1.7 0 0 Z " fill="#D21614" transform="translate(154,233)" data-index="30"></path>

<path d="M0 0 C0 0.99 0 1.98 0 3 C-0.639375 3.2475 -1.27875 3.495 -1.9375 3.75 C-4.18741541 4.81562433 -4.18741541 4.81562433 -4.75 7.125 C-4.8325 7.74375 -4.915 8.3625 -5 9 C-6.65 9 -8.3 9 -10 9 C-10.33 9.66 -10.66 10.32 -11 11 C-11.66 9.68 -12.32 8.36 -13 7 C-12.31292969 6.74605469 -11.62585938 6.49210938 -10.91796875 6.23046875 C-10.01691406 5.88628906 -9.11585938 5.54210937 -8.1875 5.1875 C-7.29417969 4.85105469 -6.40085938 4.51460937 -5.48046875 4.16796875 C-3.08075928 3.03802681 -1.71576647 1.98937707 0 0 Z " fill="#A02C26" transform="translate(210,188)" data-index="32"></path>
<path d="M0 0 C2.76010448 3.22012189 4.60050392 6.00143978 6 10 C6.37125 10.928125 6.7425 11.85625 7.125 12.8125 C7.41375 13.534375 7.7025 14.25625 8 15 C7.34 15 6.68 15 6 15 C5.34 13.68 4.68 12.36 4 11 C3.01 11.33 2.02 11.66 1 12 C0.67 8.04 0.34 4.08 0 0 Z " fill="#CB3332" transform="translate(216,164)" data-index="33"></path>
<path d="M0 0 C0.66 0 1.32 0 2 0 C3.49821059 3.37097383 4 5.20442119 4 9 C4.66 9 5.32 9 6 9 C6 10.65 6 12.3 6 14 C6.66 14 7.32 14 8 14 C8 15.98 8 17.96 8 20 C5.86879738 16.80319607 4.37998891 13.51404109 2.875 10 C2.59785156 9.3709375 2.32070312 8.741875 2.03515625 8.09375 C0.79990142 5.2216304 0 3.16054884 0 0 Z " fill="#E83231" transform="translate(105,78)" data-index="34"></path>
<path d="M0 0 C2.00130916 2.54712074 3.85727656 4.9527375 5 8 C4.67 9.32 4.34 10.64 4 12 C1.36 9.69 -1.28 7.38 -4 5 C-2.68 4.67 -1.36 4.34 0 4 C0 2.68 0 1.36 0 0 Z " fill="#FDC4C3" transform="translate(145,180)" data-index="35"></path>
<path d="M0 0 C1.875 0.1875 1.875 0.1875 4 1 C5.5225431 3.68257593 6.12235992 5.24544717 5.625 8.3125 C5.41875 8.869375 5.2125 9.42625 5 10 C1.32769295 6.92000054 0.43197635 4.7517398 0 0 Z " fill="#6C5B52" transform="translate(181,206)" data-index="36"></path>
<path d="M0 0 C0.99 0.66 1.98 1.32 3 2 C1.88554288 5.34337135 1.01611809 7.4321693 -2.125 9.1875 C-2.74375 9.455625 -3.3625 9.72375 -4 10 C-3.34 7.36 -2.68 4.72 -2 2 C-1.34 2 -0.68 2 0 2 C0 1.34 0 0.68 0 0 Z " fill="#E80508" transform="translate(219,174)" data-index="37"></path>
<path d="M0 0 C3.2223307 2.14822047 4.08437567 3.7274751 6 7 C6.7734375 7.7115625 6.7734375 7.7115625 7.5625 8.4375 C9.61552547 10.66904943 10.1695275 13.12528751 11 16 C7.33765285 13.3274764 5.1389714 10.98626488 3 7 C2.443125 6.113125 1.88625 5.22625 1.3125 4.3125 C0 2 0 2 0 0 Z " fill="#BE2822" transform="translate(179,207)" data-index="38"></path>


<path d="M0 0 C2.67438936 2.38335287 4.15158012 4.87036148 5.75 8.0625 C6.19859375 8.94035156 6.6471875 9.81820312 7.109375 10.72265625 C7.40328125 11.47417969 7.6971875 12.22570312 8 13 C7.67 13.66 7.34 14.32 7 15 C3.32217645 10.40272057 0 6.02578256 0 0 Z " fill="#EB4344" transform="translate(259,246)" data-index="41"></path>
<path d="M0 0 C2.78712092 1.39356046 3.26463329 3.16505673 4.625 5.9375 C5.07101562 6.83339844 5.51703125 7.72929687 5.9765625 8.65234375 C7 11 7 11 7 13 C6.34 13 5.68 13 5 13 C4.67 11.68 4.34 10.36 4 9 C3.34 9 2.68 9 2 9 C1.34 6.03 0.68 3.06 0 0 Z " fill="#EC373A" transform="translate(280,286)" data-index="42"></path>
<path d="M0 0 C1.32 0.33 2.64 0.66 4 1 C4 4.3 4 7.6 4 11 C2.68 10.34 1.36 9.68 0 9 C0.185625 8.2575 0.37125 7.515 0.5625 6.75 C0.99203108 4.05009037 0.85122974 2.55368923 0 0 Z " fill="#EC1E1F" transform="translate(148,184)" data-index="43"></path>
<path d="M0 0 C1.98 0 3.96 0 6 0 C6 2.31 6 4.62 6 7 C5.34 7 4.68 7 4 7 C2.02 3.535 2.02 3.535 0 0 Z " fill="#FCCBC6" transform="translate(179,165)" data-index="44"></path>
<path d="M0 0 C2.23960447 2.87949147 4.29864224 5.76742026 6 9 C5.67 9.66 5.34 10.32 5 11 C3.02 9.68 1.04 8.36 -1 7 C-0.67 4.69 -0.34 2.38 0 0 Z " fill="#DB3435" transform="translate(206,145)" data-index="45"></path>

<path d="M0 0 C4.82029598 3.85623679 4.82029598 3.85623679 5.33203125 7.11328125 C5.3145776 9.07856214 5.16596091 11.04166127 5 13 C2.2946129 8.94191935 0 4.95110601 0 0 Z " fill="#DB3F3F" transform="translate(97,58)" data-index="47"></path>

<path d="M0 0 C0.33 0 0.66 0 1 0 C1 3.96 1 7.92 1 12 C-3 11 -3 11 -4.25 8.9375 C-4.4975 8.298125 -4.745 7.65875 -5 7 C-4.34 7 -3.68 7 -3 7 C-3 7.66 -3 8.32 -3 9 C-2.34 9 -1.68 9 -1 9 C-0.67 6.03 -0.34 3.06 0 0 Z " fill="#D2211D" transform="translate(152,218)" data-index="49"></path>
<path d="M0 0 C2.32472205 2.85306797 3.7508258 5.54074837 5 9 C1.63279613 7.60667426 0.0140476 6.0210714 -2 3 C-1.34 3 -0.68 3 0 3 C0 2.01 0 1.02 0 0 Z " fill="#DA3738" transform="translate(298,320)" data-index="50"></path>
<path d="M0 0 C0.66 0 1.32 0 2 0 C2 0.66 2 1.32 2 2 C3.32 1.67 4.64 1.34 6 1 C5.67 2.65 5.34 4.3 5 6 C5.66 6 6.32 6 7 6 C6.67 6.99 6.34 7.98 6 9 C4.99712471 7.68969568 3.99777175 6.37669473 3 5.0625 C2.443125 4.33160156 1.88625 3.60070312 1.3125 2.84765625 C0 1 0 1 0 0 Z " fill="#DF080A" transform="translate(212,215)" data-index="51"></path>
<path d="M0 0 C1.12588014 0.95729916 2.2506715 1.91587895 3.375 2.875 C4.00148438 3.40867187 4.62796875 3.94234375 5.2734375 4.4921875 C6.55836651 5.61432007 7.79371975 6.79371975 9 8 C8.34 8 7.68 8 7 8 C6.67 8.66 6.34 9.32 6 10 C4.99421411 8.71283353 3.99553202 7.42011342 3 6.125 C2.443125 5.40570313 1.88625 4.68640625 1.3125 3.9453125 C0 2 0 2 0 0 Z " fill="#D2393B" transform="translate(66,117)" data-index="52"></path>
<path d="M0 0 C2.4375 0.75 2.4375 0.75 5 2 C5.6875 4 5.6875 4 6 6 C6.66 6.66 7.32 7.32 8 8 C7.01 8 6.02 8 5 8 C3.61328125 6.50390625 3.61328125 6.50390625 2.3125 4.5625 C1.87550781 3.92441406 1.43851562 3.28632813 0.98828125 2.62890625 C0 1 0 1 0 0 Z " fill="#E92020" transform="translate(92,152)" data-index="53"></path>

<path d="M0 0 C2.97246802 2.54782974 4.41535288 5.45340883 6 9 C6 9.66 6 10.32 6 11 C5.34 11 4.68 11 4 11 C0 4.5 0 4.5 0 0 Z " fill="#E93336" transform="translate(291,307)" data-index="55" style="opacity: 1;"></path>


<path d="M0 0 C4.43458973 1.3937282 6.87378374 3.60582235 10 7 C6.433255 7 5.89456323 6.36308045 3.3125 4.0625 C2.68988281 3.51722656 2.06726563 2.97195313 1.42578125 2.41015625 C0.95527344 1.94480469 0.48476563 1.47945313 0 1 C0 0.67 0 0.34 0 0 Z " fill="#E5282A" transform="translate(283,312)" data-index="58"></path>

<path d="M0 0 C4.875 4.625 4.875 4.625 6 8 C4.68 8 3.36 8 2 8 C1.34 5.36 0.68 2.72 0 0 Z " fill="#EA2E2C" transform="translate(104,67)" data-index="60"></path>
<path d="M0 0 C0.99 0 1.98 0 3 0 C3 1.65 3 3.3 3 5 C1.68 4.67 0.36 4.34 -1 4 C-0.67 2.68 -0.34 1.36 0 0 Z " fill="#EB120F" transform="translate(295,318)" data-index="61"></path>


<path d="M0 0 C2.31 1.98 4.62 3.96 7 6 C6.01 6.33 5.02 6.66 4 7 C0 2.25 0 2.25 0 0 Z " fill="#FED9D8" transform="translate(275,305)" data-index="64"></path>
<path d="M0 0 C4.875 4.625 4.875 4.625 6 8 C4.68 7.67 3.36 7.34 2 7 C1.855625 6.401875 1.71125 5.80375 1.5625 5.1875 C1.1127561 3.43849596 0.57107659 1.71322977 0 0 Z " fill="#590001" transform="translate(216,222)" data-index="65"></path>
<path d="M0 0 C4.875 4.625 4.875 4.625 6 8 C5.34 8 4.68 8 4 8 C4 7.34 4 6.68 4 6 C3.01 6 2.02 6 1 6 C0.67 4.02 0.34 2.04 0 0 Z " fill="#4C504A" transform="translate(186,210)" data-index="66"></path>
<path d="M0 0 C2.31 1.98 4.62 3.96 7 6 C6.01 6.495 6.01 6.495 5 7 C4.01 6.67 3.02 6.34 2 6 C0.8125 2.9375 0.8125 2.9375 0 0 Z " fill="#E3211F" transform="translate(84,133)" data-index="67"></path>
<path d="M0 0 C2.45484649 2.13464912 3.68134222 3.70720291 4 7 C3.34 7.66 2.68 8.32 2 9 C1.814375 8.071875 1.814375 8.071875 1.625 7.125 C1.12802644 4.80879168 1.12802644 4.80879168 -1 3 C-0.67 2.01 -0.34 1.02 0 0 Z " fill="#EF2E32" transform="translate(194,123)" data-index="68"></path>
</svg>